<svg width="168" height="48" viewBox="0 0 168 48" fill="none" xmlns="http://www.w3.org/2000/svg">
<path d="M0.0104875 0.534851H27.4031V7.23618H17.3878V47.4547H10.0153V7.23618H0V0.534851H0.0104875Z" fill="white"/>
<path d="M20.0306 9.99432H27.4031V47.4652H20.0306V9.99432Z" fill="white"/>
<path d="M45.4306 33.8527L50.454 0.534851H60.7105V47.4547H53.7365V13.8012L48.6397 47.4547H41.6657L36.1704 14.2731V47.4547H29.7312V0.534851H39.9877L45.4201 33.8527H45.4306Z" fill="white"/>
<path d="M69.9602 47.4651H62.5877V0.545319H69.9602V20.6598H78.3395V0.545319H85.8484V47.4651H78.3395V27.3507H69.9602V47.4651Z" fill="white"/>
<path d="M87.757 11.7981C87.757 4.28927 91.7107 0 98.9469 0C106.183 0 110.137 4.28927 110.137 11.7981V36.2019C110.137 43.7107 106.183 48 98.9469 48C91.7107 48 87.757 43.7107 87.757 36.2019V11.7981ZM95.1295 36.6738C95.1295 40.0297 96.6082 41.2987 98.9469 41.2987C101.286 41.2987 102.764 40.0297 102.764 36.6738V11.3367C102.764 7.98077 101.286 6.71182 98.9469 6.71182C96.6082 6.71182 95.1295 7.98077 95.1295 11.3367V36.6738Z" fill="white"/>
<path d="M123.12 10.634C130.293 10.634 133.974 13.969 133.974 19.8208V20.9639H127V19.4538C127 16.8425 125.658 15.8567 123.309 15.8567C120.96 15.8567 119.617 16.853 119.617 19.4538C119.617 26.9731 134.027 28.3784 134.027 38.8132C134.027 44.6546 130.272 48 123.036 48C115.8 48 112.045 44.6651 112.045 38.8132V36.5689H119.019V39.1802C119.019 41.7916 120.498 42.7249 122.837 42.7249C125.175 42.7249 126.654 41.7811 126.654 39.1802C126.654 31.6609 112.245 30.2556 112.245 19.8208C112.245 13.9795 115.936 10.634 123.099 10.634H123.12Z" fill="white"/>
<path d="M112.056 0.534851H167.67V7.23618H143.423V47.4547H136.051V7.23618H112.056V0.534851Z" fill="white"/>
<path d="M154.938 26.1551H165.058V31.4197H154.938V42.2111H167.67V47.4756H147.555V10.6445H167.67V15.9091H154.938V26.1656V26.1551Z" fill="white"/>
</svg>
